<mxfile host="app.diagrams.net" modified="2024-02-26T15:21:04.817Z" agent="Mozilla/5.0 (Windows NT 10.0; Win64; x64) AppleWebKit/537.36 (KHTML, like Gecko) Chrome/121.0.0.0 Safari/537.36" etag="YyHWjufMzqu0RfPySR3E" version="23.1.5" type="device">
  <diagram name="Página-1" id="w14BF_1qVztE4clil-HG">
    <mxGraphModel dx="880" dy="460" grid="1" gridSize="10" guides="1" tooltips="1" connect="1" arrows="1" fold="1" page="1" pageScale="1" pageWidth="827" pageHeight="1169" math="0" shadow="0">
      <root>
        <mxCell id="0" />
        <mxCell id="1" parent="0" />
        <mxCell id="4e6tRMlq89GSnf3uGfpX-3" value="" style="edgeStyle=orthogonalEdgeStyle;rounded=0;orthogonalLoop=1;jettySize=auto;html=1;" edge="1" parent="1" source="4e6tRMlq89GSnf3uGfpX-1" target="4e6tRMlq89GSnf3uGfpX-2">
          <mxGeometry relative="1" as="geometry" />
        </mxCell>
        <mxCell id="4e6tRMlq89GSnf3uGfpX-1" value="Inicio" style="ellipse;whiteSpace=wrap;html=1;" vertex="1" parent="1">
          <mxGeometry x="480" y="100" width="120" height="80" as="geometry" />
        </mxCell>
        <mxCell id="4e6tRMlq89GSnf3uGfpX-5" value="" style="edgeStyle=orthogonalEdgeStyle;rounded=0;orthogonalLoop=1;jettySize=auto;html=1;" edge="1" parent="1" source="4e6tRMlq89GSnf3uGfpX-2" target="4e6tRMlq89GSnf3uGfpX-4">
          <mxGeometry relative="1" as="geometry" />
        </mxCell>
        <mxCell id="4e6tRMlq89GSnf3uGfpX-2" value="Wiwis = rata 1&lt;br&gt;tubería 1&lt;br&gt;tubería 2&lt;br&gt;tubería 3&lt;br&gt;tubería 4" style="shape=parallelogram;perimeter=parallelogramPerimeter;whiteSpace=wrap;html=1;fixedSize=1;" vertex="1" parent="1">
          <mxGeometry x="470" y="200" width="140" height="100" as="geometry" />
        </mxCell>
        <mxCell id="4e6tRMlq89GSnf3uGfpX-7" value="" style="edgeStyle=orthogonalEdgeStyle;rounded=0;orthogonalLoop=1;jettySize=auto;html=1;" edge="1" parent="1" source="4e6tRMlq89GSnf3uGfpX-4" target="4e6tRMlq89GSnf3uGfpX-6">
          <mxGeometry relative="1" as="geometry" />
        </mxCell>
        <mxCell id="4e6tRMlq89GSnf3uGfpX-4" value="rata 1 camina hacia tubería 1" style="whiteSpace=wrap;html=1;" vertex="1" parent="1">
          <mxGeometry x="480" y="350" width="120" height="60" as="geometry" />
        </mxCell>
        <mxCell id="4e6tRMlq89GSnf3uGfpX-9" value="" style="edgeStyle=orthogonalEdgeStyle;rounded=0;orthogonalLoop=1;jettySize=auto;html=1;" edge="1" parent="1" source="4e6tRMlq89GSnf3uGfpX-6" target="4e6tRMlq89GSnf3uGfpX-8">
          <mxGeometry relative="1" as="geometry" />
        </mxCell>
        <mxCell id="4e6tRMlq89GSnf3uGfpX-28" style="edgeStyle=orthogonalEdgeStyle;rounded=0;orthogonalLoop=1;jettySize=auto;html=1;entryX=0;entryY=0.5;entryDx=0;entryDy=0;" edge="1" parent="1" source="4e6tRMlq89GSnf3uGfpX-6" target="4e6tRMlq89GSnf3uGfpX-4">
          <mxGeometry relative="1" as="geometry">
            <Array as="points">
              <mxPoint x="430" y="505" />
              <mxPoint x="430" y="380" />
            </Array>
          </mxGeometry>
        </mxCell>
        <mxCell id="4e6tRMlq89GSnf3uGfpX-6" value="wiwis entra por la tubería 1?" style="rhombus;whiteSpace=wrap;html=1;" vertex="1" parent="1">
          <mxGeometry x="450" y="450" width="180" height="110" as="geometry" />
        </mxCell>
        <mxCell id="4e6tRMlq89GSnf3uGfpX-11" value="" style="edgeStyle=orthogonalEdgeStyle;rounded=0;orthogonalLoop=1;jettySize=auto;html=1;" edge="1" parent="1" source="4e6tRMlq89GSnf3uGfpX-8" target="4e6tRMlq89GSnf3uGfpX-10">
          <mxGeometry relative="1" as="geometry" />
        </mxCell>
        <mxCell id="4e6tRMlq89GSnf3uGfpX-8" value="seguir caminando a la siguiente tuberia" style="whiteSpace=wrap;html=1;" vertex="1" parent="1">
          <mxGeometry x="480" y="610" width="120" height="60" as="geometry" />
        </mxCell>
        <mxCell id="4e6tRMlq89GSnf3uGfpX-12" style="edgeStyle=orthogonalEdgeStyle;rounded=0;orthogonalLoop=1;jettySize=auto;html=1;entryX=0;entryY=0.5;entryDx=0;entryDy=0;" edge="1" parent="1" source="4e6tRMlq89GSnf3uGfpX-10" target="4e6tRMlq89GSnf3uGfpX-4">
          <mxGeometry relative="1" as="geometry">
            <Array as="points">
              <mxPoint x="330" y="780" />
              <mxPoint x="330" y="380" />
            </Array>
          </mxGeometry>
        </mxCell>
        <mxCell id="4e6tRMlq89GSnf3uGfpX-14" value="" style="edgeStyle=orthogonalEdgeStyle;rounded=0;orthogonalLoop=1;jettySize=auto;html=1;" edge="1" parent="1" source="4e6tRMlq89GSnf3uGfpX-10" target="4e6tRMlq89GSnf3uGfpX-13">
          <mxGeometry relative="1" as="geometry" />
        </mxCell>
        <mxCell id="4e6tRMlq89GSnf3uGfpX-10" value="wiwis entra por tubería 2?" style="rhombus;whiteSpace=wrap;html=1;" vertex="1" parent="1">
          <mxGeometry x="485" y="710" width="110" height="90" as="geometry" />
        </mxCell>
        <mxCell id="4e6tRMlq89GSnf3uGfpX-16" value="" style="edgeStyle=orthogonalEdgeStyle;rounded=0;orthogonalLoop=1;jettySize=auto;html=1;" edge="1" parent="1" source="4e6tRMlq89GSnf3uGfpX-13" target="4e6tRMlq89GSnf3uGfpX-15">
          <mxGeometry relative="1" as="geometry" />
        </mxCell>
        <mxCell id="4e6tRMlq89GSnf3uGfpX-13" value="wiwis sigue caminando" style="whiteSpace=wrap;html=1;" vertex="1" parent="1">
          <mxGeometry x="480" y="830" width="120" height="60" as="geometry" />
        </mxCell>
        <mxCell id="4e6tRMlq89GSnf3uGfpX-17" style="edgeStyle=orthogonalEdgeStyle;rounded=0;orthogonalLoop=1;jettySize=auto;html=1;entryX=0;entryY=0.5;entryDx=0;entryDy=0;" edge="1" parent="1" source="4e6tRMlq89GSnf3uGfpX-15" target="4e6tRMlq89GSnf3uGfpX-4">
          <mxGeometry relative="1" as="geometry">
            <Array as="points">
              <mxPoint x="380" y="985" />
              <mxPoint x="380" y="380" />
            </Array>
          </mxGeometry>
        </mxCell>
        <mxCell id="4e6tRMlq89GSnf3uGfpX-19" value="" style="edgeStyle=orthogonalEdgeStyle;rounded=0;orthogonalLoop=1;jettySize=auto;html=1;" edge="1" parent="1" source="4e6tRMlq89GSnf3uGfpX-15" target="4e6tRMlq89GSnf3uGfpX-18">
          <mxGeometry relative="1" as="geometry" />
        </mxCell>
        <mxCell id="4e6tRMlq89GSnf3uGfpX-15" value="wiwis entra por tubería 3?" style="rhombus;whiteSpace=wrap;html=1;" vertex="1" parent="1">
          <mxGeometry x="485" y="940" width="110" height="90" as="geometry" />
        </mxCell>
        <mxCell id="4e6tRMlq89GSnf3uGfpX-26" style="edgeStyle=orthogonalEdgeStyle;rounded=0;orthogonalLoop=1;jettySize=auto;html=1;entryX=0.5;entryY=0;entryDx=0;entryDy=0;" edge="1" parent="1" source="4e6tRMlq89GSnf3uGfpX-18" target="4e6tRMlq89GSnf3uGfpX-20">
          <mxGeometry relative="1" as="geometry" />
        </mxCell>
        <mxCell id="4e6tRMlq89GSnf3uGfpX-18" value="Seguir caminando" style="whiteSpace=wrap;html=1;" vertex="1" parent="1">
          <mxGeometry x="475" y="1050" width="120" height="60" as="geometry" />
        </mxCell>
        <mxCell id="4e6tRMlq89GSnf3uGfpX-22" value="" style="edgeStyle=orthogonalEdgeStyle;rounded=0;orthogonalLoop=1;jettySize=auto;html=1;" edge="1" parent="1" source="4e6tRMlq89GSnf3uGfpX-20" target="4e6tRMlq89GSnf3uGfpX-21">
          <mxGeometry relative="1" as="geometry" />
        </mxCell>
        <mxCell id="4e6tRMlq89GSnf3uGfpX-27" style="edgeStyle=orthogonalEdgeStyle;rounded=0;orthogonalLoop=1;jettySize=auto;html=1;entryX=0;entryY=0.5;entryDx=0;entryDy=0;" edge="1" parent="1" source="4e6tRMlq89GSnf3uGfpX-20" target="4e6tRMlq89GSnf3uGfpX-4">
          <mxGeometry relative="1" as="geometry">
            <Array as="points">
              <mxPoint x="310" y="1175" />
              <mxPoint x="310" y="380" />
            </Array>
          </mxGeometry>
        </mxCell>
        <mxCell id="4e6tRMlq89GSnf3uGfpX-20" value="wiwis entra por tubería 4?" style="rhombus;whiteSpace=wrap;html=1;" vertex="1" parent="1">
          <mxGeometry x="480" y="1130" width="110" height="90" as="geometry" />
        </mxCell>
        <mxCell id="4e6tRMlq89GSnf3uGfpX-24" value="" style="edgeStyle=orthogonalEdgeStyle;rounded=0;orthogonalLoop=1;jettySize=auto;html=1;" edge="1" parent="1" source="4e6tRMlq89GSnf3uGfpX-21" target="4e6tRMlq89GSnf3uGfpX-23">
          <mxGeometry relative="1" as="geometry" />
        </mxCell>
        <mxCell id="4e6tRMlq89GSnf3uGfpX-21" value="comer queso" style="whiteSpace=wrap;html=1;" vertex="1" parent="1">
          <mxGeometry x="475" y="1260" width="120" height="60" as="geometry" />
        </mxCell>
        <mxCell id="4e6tRMlq89GSnf3uGfpX-23" value="FIN" style="ellipse;whiteSpace=wrap;html=1;" vertex="1" parent="1">
          <mxGeometry x="495" y="1390" width="80" height="80" as="geometry" />
        </mxCell>
      </root>
    </mxGraphModel>
  </diagram>
</mxfile>
